<svg width="50" height="56" viewBox="0 0 50 56" fill="none" xmlns="http://www.w3.org/2000/svg">
<g clip-path="url(#clip0_1_897)">
<path opacity="0.3" fill-rule="evenodd" clip-rule="evenodd" d="M49 28.0001C49 42.8449 38.2563 54.8801 25 54.8801C11.7437 54.8801 1 42.8449 1 28.0001C1 13.153 11.7437 1.12012 25 1.12012C38.2563 1.12012 49 13.153 49 28.0001Z" stroke="white" stroke-linecap="round" stroke-linejoin="round"/>
<path fill-rule="evenodd" clip-rule="evenodd" d="M30.3064 23.6709H26.703V21.9057C26.703 21.0033 27.2391 20.7893 27.615 20.7893H29.7842V16.8104L26.1638 16.8C22.6235 16.8 22.0812 19.7661 22.0812 21.6624V23.6709H19V27.1218H22.0812V39.2001H26.703V27.1218H29.9305L30.3064 23.6709Z" fill="white"/>
</g>
<defs>
<clipPath id="clip0_1_897">
<rect width="50" height="56" fill="white"/>
</clipPath>
</defs>
</svg>
