<svg width="570" height="31" viewBox="0 0 570 31" fill="none" xmlns="http://www.w3.org/2000/svg">
<g clip-path="url(#clip0_1_564)">
<path d="M247.5 2.44199L250.364 8.52199L256.747 9.52499L252.153 14.165L253.227 20.809L247.5 17.675L241.773 20.809L242.906 14.164L238.313 9.46299L244.696 8.45999L247.5 2.44199Z" fill="white"/>
</g>
<g clip-path="url(#clip1_1_564)">
<path d="M285.5 2.44199L288.364 8.52199L294.747 9.52499L290.153 14.165L291.227 20.809L285.5 17.675L279.773 20.809L280.906 14.164L276.313 9.46299L282.696 8.45999L285.5 2.44199Z" fill="white"/>
</g>
<g clip-path="url(#clip2_1_564)">
<path d="M323.5 2.44199L326.364 8.52199L332.747 9.52499L328.153 14.165L329.227 20.809L323.5 17.675L317.773 20.809L318.906 14.164L314.313 9.46299L320.696 8.45999L323.5 2.44199Z" fill="white"/>
</g>
<g clip-path="url(#clip3_1_564)">
<path d="M266.5 2.44199L269.364 8.52199L275.747 9.52499L271.153 14.165L272.227 20.809L266.5 17.675L260.773 20.809L261.906 14.164L257.313 9.46299L263.696 8.45999L266.5 2.44199Z" fill="white"/>
</g>
<g clip-path="url(#clip4_1_564)">
<path d="M304.5 2.44199L307.364 8.52199L313.747 9.52499L309.153 14.165L310.227 20.809L304.5 17.675L298.773 20.809L299.906 14.164L295.313 9.46299L301.696 8.45999L304.5 2.44199Z" fill="white"/>
</g>
<defs>
<clipPath id="clip0_1_564">
<rect width="19" height="19" fill="white" transform="translate(238 2)"/>
</clipPath>
<clipPath id="clip1_1_564">
<rect width="19" height="19" fill="white" transform="translate(276 2)"/>
</clipPath>
<clipPath id="clip2_1_564">
<rect width="19" height="19" fill="white" transform="translate(314 2)"/>
</clipPath>
<clipPath id="clip3_1_564">
<rect width="19" height="19" fill="white" transform="translate(257 2)"/>
</clipPath>
<clipPath id="clip4_1_564">
<rect width="19" height="19" fill="white" transform="translate(295 2)"/>
</clipPath>
</defs>
</svg>
