<svg width="172" height="60" viewBox="0 0 172 60" fill="none" xmlns="http://www.w3.org/2000/svg">
<g clip-path="url(#clip0_1_880)">
<path fill-rule="evenodd" clip-rule="evenodd" d="M96 20.0341C96 20.0341 93.8814 20.2905 92.9421 20.5013C92.1879 19.6003 91.1168 19.04 89.9297 19.04C87.6497 19.04 85.8008 21.109 85.8008 23.6627C85.8008 24.0227 85.8369 24.3792 85.909 24.7147C82.478 24.525 79.4358 22.6826 77.4019 19.8848C77.0459 20.5715 76.8421 21.3636 76.8421 22.2102C76.8421 23.8155 77.5713 25.2275 78.6784 26.0583C78.0025 26.0319 77.3658 25.8247 76.8092 25.4787V25.5401C76.8092 27.7777 78.2315 29.6482 80.1195 30.0697C79.5142 30.2558 78.8775 30.2804 78.2565 30.1505C78.7803 31.9858 80.3045 33.3224 82.111 33.361C80.3469 34.9118 78.1546 35.5564 76 35.2736C77.8269 36.5856 79.9972 37.3531 82.3274 37.3531C89.9188 37.3531 94.0696 30.3068 94.0696 24.2001C94.0696 23.9981 94.0681 23.7996 94.0586 23.6012C94.8647 22.9478 95.448 20.9632 96 20.0341Z" fill="white"/>
<path opacity="0.3" fill-rule="evenodd" clip-rule="evenodd" d="M110 28.0001C110 42.8472 99.2563 54.8801 86 54.8801C72.7437 54.8801 62 42.8472 62 28.0001C62 13.153 72.7437 1.12012 86 1.12012C99.2563 1.12012 110 13.153 110 28.0001Z" stroke="white" stroke-linecap="round" stroke-linejoin="round"/>
</g>
<g clip-path="url(#clip1_1_880)">
<path opacity="0.3" fill-rule="evenodd" clip-rule="evenodd" d="M171 28.0001C171 42.8449 160.256 54.8801 147 54.8801C133.744 54.8801 123 42.8449 123 28.0001C123 13.153 133.744 1.12012 147 1.12012C160.256 1.12012 171 13.153 171 28.0001Z" stroke="white" stroke-linecap="round" stroke-linejoin="round"/>
<path fill-rule="evenodd" clip-rule="evenodd" d="M153.411 39.2001H140.589C138.608 39.2001 137 37.3994 137 35.1784V20.8183C137 18.6007 138.608 16.8 140.589 16.8H153.411C155.392 16.8 157 18.6007 157 20.8183V35.1784C157 37.3994 155.392 39.2001 153.411 39.2001ZM152.242 27.7396C152.242 24.3533 149.789 21.6086 146.767 21.6086C143.744 21.6086 141.293 24.3533 141.293 27.7396C141.293 31.1239 143.744 33.8705 146.767 33.8705C149.789 33.8705 152.242 31.1239 152.242 27.7396ZM154.818 21.0076C154.818 19.746 153.904 18.7235 152.778 18.7235C151.652 18.7235 150.739 19.746 150.739 21.0076C150.739 22.2684 151.652 23.2916 152.778 23.2916C153.904 23.2916 154.818 22.2684 154.818 21.0076Z" fill="white" stroke="white" stroke-linejoin="round"/>
</g>
<g clip-path="url(#clip2_1_880)">
<path opacity="0.3" fill-rule="evenodd" clip-rule="evenodd" d="M49 28.0001C49 42.8449 38.2563 54.8801 25 54.8801C11.7437 54.8801 1 42.8449 1 28.0001C1 13.153 11.7437 1.12012 25 1.12012C38.2563 1.12012 49 13.153 49 28.0001Z" stroke="white" stroke-linecap="round" stroke-linejoin="round"/>
<path fill-rule="evenodd" clip-rule="evenodd" d="M30.3064 23.6709H26.703V21.9057C26.703 21.0033 27.2391 20.7893 27.615 20.7893H29.7842V16.8104L26.1638 16.8C22.6235 16.8 22.0812 19.7661 22.0812 21.6624V23.6709H19V27.1218H22.0812V39.2001H26.703V27.1218H29.9305L30.3064 23.6709Z" fill="white"/>
</g>
<defs>
<clipPath id="clip0_1_880">
<rect width="50" height="56" fill="white" transform="translate(61)"/>
</clipPath>
<clipPath id="clip1_1_880">
<rect width="50" height="56" fill="white" transform="translate(122)"/>
</clipPath>
<clipPath id="clip2_1_880">
<rect width="50" height="56" fill="white"/>
</clipPath>
</defs>
</svg>
