<svg width="50" height="56" viewBox="0 0 50 56" fill="none" xmlns="http://www.w3.org/2000/svg">
<path opacity="0.3" fill-rule="evenodd" clip-rule="evenodd" d="M49 28.0001C49 42.8449 38.2563 54.8801 25 54.8801C11.7437 54.8801 1 42.8449 1 28.0001C1 13.153 11.7437 1.12012 25 1.12012C38.2563 1.12012 49 13.153 49 28.0001Z" stroke="white" stroke-linecap="round" stroke-linejoin="round"/>
<path fill-rule="evenodd" clip-rule="evenodd" d="M31.4108 39.2001H18.5892C16.6077 39.2001 15 37.3994 15 35.1784V20.8183C15 18.6007 16.6077 16.8 18.5892 16.8H31.4108C33.3923 16.8 35 18.6007 35 20.8183V35.1784C35 37.3994 33.3923 39.2001 31.4108 39.2001ZM30.2415 27.7396C30.2415 24.3533 27.7891 21.6086 24.7674 21.6086C21.7439 21.6086 19.2934 24.3533 19.2934 27.7396C19.2934 31.1239 21.7439 33.8705 24.7674 33.8705C27.7891 33.8705 30.2415 31.1239 30.2415 27.7396ZM32.8175 21.0076C32.8175 19.746 31.9039 18.7235 30.7782 18.7235C29.6518 18.7235 28.7388 19.746 28.7388 21.0076C28.7388 22.2684 29.6518 23.2916 30.7782 23.2916C31.9039 23.2916 32.8175 22.2684 32.8175 21.0076Z" fill="white" stroke="white" stroke-linejoin="round"/>
</svg>
